<svg width="256" height="256" viewBox="0 0 256 256" fill="none" xmlns="http://www.w3.org/2000/svg">
  <defs>
    <path id="ring" d="M128 22c58.542 0 106 47.458 106 106S186.542 234 128 234 22 186.542 22 128 69.458 22 128 22Z"/>
  </defs>

  <!-- Paper seal -->
  <circle cx="128" cy="128" r="106" fill="#FFFCF4" stroke="#22211D" stroke-width="6"/>
  <circle cx="128" cy="128" r="92" fill="#FBF7ED" stroke="#22211D" stroke-width="2" stroke-dasharray="2 10" opacity="0.9"/>

  <!-- Top/Bottom ring text (simple) -->
  <text font-family="serif" font-size="16" font-weight="700" letter-spacing="0.18em" fill="#22211D">
    <textPath href="#ring" startOffset="14%">DINO COOKIES • DINO COOKIES •</textPath>
  </text>

  <!-- Center mark -->
  <g transform="translate(128 120)">
    <path d="M-46 28c9-25 25-40 48-40 19 0 30 9 40 20 6 7 14 12 23 12 11 0 21-7 26-17" stroke="#22211D" stroke-width="6" stroke-linecap="round" stroke-linejoin="round"/>
    <path d="M-18 14c2-10 9-16 18-16 6 0 11 2 16 6" stroke="#22211D" stroke-width="6" stroke-linecap="round"/>
    <circle cx="42" cy="-8" r="6" fill="#22211D"/>
  </g>

  <text x="128" y="148" text-anchor="middle" font-family="serif" font-size="28" font-weight="900" letter-spacing="-0.02em" fill="#22211D">Dino</text>
  <text x="128" y="174" text-anchor="middle" font-family="serif" font-size="18" font-weight="700" letter-spacing="0.14em" fill="#22211D" opacity="0.9">BAKERY</text>

  <!-- Tiny side ticks -->
  <path d="M32 128h12" stroke="#22211D" stroke-width="3" stroke-linecap="round" opacity="0.7"/>
  <path d="M212 128h12" stroke="#22211D" stroke-width="3" stroke-linecap="round" opacity="0.7"/>
</svg>
